<?xml version="1.0" encoding="UTF-8" standalone="no"?>
<!-- Created with Inkscape (http://www.inkscape.org/) -->

<svg
   xmlns:dc="http://purl.org/dc/elements/1.1/"
   xmlns:cc="http://creativecommons.org/ns#"
   xmlns:rdf="http://www.w3.org/1999/02/22-rdf-syntax-ns#"
   xmlns:svg="http://www.w3.org/2000/svg"
   xmlns="http://www.w3.org/2000/svg"
   xmlns:sodipodi="http://sodipodi.sourceforge.net/DTD/sodipodi-0.dtd"
   xmlns:inkscape="http://www.inkscape.org/namespaces/inkscape"
   width="744.09448819"
   height="1052.3622047"
   id="svg4566"
   version="1.1"
   inkscape:version="0.48.5 r10040"
   sodipodi:docname="award.svg">
  <defs
     id="defs4568" />
  <sodipodi:namedview
     id="base"
     pagecolor="#ffffff"
     bordercolor="#666666"
     borderopacity="1.0"
     inkscape:pageopacity="0.0"
     inkscape:pageshadow="2"
     inkscape:zoom="0.98994949"
     inkscape:cx="375"
     inkscape:cy="520"
     inkscape:document-units="px"
     inkscape:current-layer="g3178"
     showgrid="false"
     inkscape:window-width="1600"
     inkscape:window-height="837"
     inkscape:window-x="-8"
     inkscape:window-y="-8"
     inkscape:window-maximized="1" />
  <metadata
     id="metadata4571">
    <rdf:RDF>
      <cc:Work
         rdf:about="">
        <dc:format>image/svg+xml</dc:format>
        <dc:type
           rdf:resource="http://purl.org/dc/dcmitype/StillImage" />
      </cc:Work>
    </rdf:RDF>
  </metadata>
  <g
     inkscape:label="Layer 1"
     inkscape:groupmode="layer"
     id="layer1">
    <g
       id="g3178"
       transform="matrix(0.26037827,0,0,0.26037827,55.379537,304.37256)"
       style="fill:#dd3333;fill-opacity:1">
      <path
         d="m -113.20753,464.47302 c -0.48243,0.48244 0.63908,13.21944 0.10567,13.64483 -0.53341,0.42538 -12.70152,-3.50227 -13.2792,-3.13929 -0.57769,0.36299 -2.31854,13.03022 -2.93324,13.32624 -0.6147,0.29602 -11.60374,-6.24081 -12.24771,-6.01548 -0.64398,0.22534 -5.1599,12.1876 -5.82506,12.33941 -0.66516,0.15182 -9.92409,-8.66641 -10.60207,-8.59002 -0.67797,0.0764 -7.74252,10.73383 -8.42479,10.73383 -0.68226,0 -7.74681,-10.65744 -8.42478,-10.73383 -0.67798,-0.0764 -9.93691,8.74184 -10.60207,8.59002 -0.66516,-0.15181 -5.18108,-12.11407 -5.82506,-12.33941 -0.64397,-0.22533 -11.63301,6.3115 -12.24771,6.01548 -0.6147,-0.29602 -2.35555,-12.96325 -2.93324,-13.32624 -0.57768,-0.36298 -12.74579,3.56467 -13.2792,3.13929 -0.53341,-0.42539 0.5881,-13.16239 0.10567,-13.64483 -0.48243,-0.48243 -13.21944,0.63909 -13.64482,0.10568 -0.42538,-0.53342 3.50227,-12.70152 3.13928,-13.27921 -0.36298,-0.57768 -13.03021,-2.31854 -13.32623,-2.93323 -0.29602,-0.6147 6.24081,-11.60374 6.01547,-12.24771 -0.22533,-0.64398 -12.18759,-5.15991 -12.33941,-5.82506 -0.15181,-0.66516 8.66642,-9.9241 8.59003,-10.60207 -0.0764,-0.67797 -10.73384,-7.74253 -10.73384,-8.42479 0,-0.68226 10.65745,-7.74682 10.73384,-8.42479 0.0764,-0.67797 -8.74184,-9.93691 -8.59003,-10.60206 0.15182,-0.66516 12.11408,-5.18109 12.33941,-5.82506 0.22534,-0.64398 -6.31149,-11.63302 -6.01547,-12.24771 0.29602,-0.6147 12.96325,-2.35555 13.32623,-2.93324 0.36299,-0.57769 -3.56466,-12.74579 -3.13928,-13.2792 0.42538,-0.53342 13.16239,0.5881 13.64482,0.10567 0.48243,-0.48243 -0.63908,-13.21944 -0.10567,-13.64482 0.53341,-0.42539 12.70152,3.50226 13.2792,3.13928 0.57769,-0.36299 2.31854,-13.03021 2.93324,-13.32623 0.6147,-0.29603 11.60373,6.24081 12.24771,6.01547 0.64398,-0.22534 5.1599,-12.18759 5.82506,-12.33941 0.66516,-0.15182 9.92409,8.66642 10.60207,8.59003 0.67797,-0.0764 7.74252,-10.73384 8.42478,-10.73384 0.68227,0 7.74682,10.65745 8.42479,10.73384 0.67798,0.0764 9.93691,-8.74185 10.60207,-8.59003 0.66516,0.15182 5.18108,12.11407 5.82506,12.33941 0.64397,0.22534 11.63301,-6.3115 12.24771,-6.01547 0.6147,0.29602 2.35555,12.96324 2.93324,13.32623 0.57768,0.36298 12.74579,-3.56467 13.2792,-3.13928 0.53341,0.42538 -0.58811,13.16239 -0.10567,13.64482 0.48243,0.48243 13.219436,-0.63909 13.644819,-0.10567 0.425383,0.53341 -3.502269,12.70151 -3.139279,13.2792 0.36298,0.57769 13.030208,2.31854 13.32623,2.93324 0.296022,0.61469 -6.240811,11.60373 -6.015474,12.24771 0.225336,0.64397 12.187592,5.1599 12.33941,5.82506 0.151817,0.66515 -8.666415,9.92409 -8.590026,10.60206 0.07639,0.67797 10.733838,7.74253 10.733838,8.42479 0,0.68226 -10.657449,7.74682 -10.733838,8.42479 -0.07639,0.67797 8.741843,9.93691 8.590026,10.60207 -0.151818,0.66515 -12.114073,5.18108 -12.33941,5.82506 -0.225337,0.64397 6.311497,11.63301 6.015474,12.24771 -0.296022,0.61469 -12.96325,2.35555 -13.32623,2.93323 -0.36299,0.57769 3.564663,12.74579 3.139279,13.27921 -0.425383,0.53341 -13.162389,-0.58811 -13.644819,-0.10568 z"
         inkscape:flatsided="false"
         inkscape:rounded="0.05"
         sodipodi:cx="-166.41393"
         sodipodi:cy="411.26663"
         inkscape:randomized="0"
         transform="matrix(4.489415,0,0,4.222085,1906.0432,-860.79343)"
         sodipodi:arg2="0.8975979"
         sodipodi:arg1="0.78539816"
         sodipodi:r2="85.505913"
         sodipodi:r1="75.245201"
         sodipodi:sides="28"
         sodipodi:type="star"
         style="opacity:0.99589998999999996;fill:#000000;fill-opacity:1"
         id="path3162" />
      <path
         d="m 124.37858,461.93936 c -0.37564,0.3361 -8.83868,3.71724 -9.24959,4.00916 -0.41091,0.29193 -6.38921,7.17053 -6.83022,7.41462 -0.44102,0.24408 -9.444243,1.65724 -9.909813,1.85042 -0.465569,0.19317 -7.824608,5.56901 -8.308879,5.70884 -0.48427,0.13983 -9.576225,-0.48584 -10.073107,-0.40111 -0.496882,0.0847 -8.867651,3.68825 -9.370895,3.71681 -0.503244,0.0286 -9.228019,-2.60457 -9.731298,-2.63253 -0.503278,-0.028 -9.466032,1.62254 -9.963015,1.5384 -0.496984,-0.0841 -8.417082,-4.59269 -8.901521,-4.73194 -0.484438,-0.13925 -9.589747,-0.52454 -10.055549,-0.71715 -0.465801,-0.19261 -7.184077,-6.35052 -7.625384,-6.59408 -0.441306,-0.24356 -9.232592,-2.6453 -9.643855,-2.93674 C 14.304192,467.87263 9.1246222,460.37415 8.748576,460.0385 8.3725298,459.70285 0.33609917,455.40508 -1.7639399e-6,455.02943 -0.33610271,454.65379 -3.7172418,446.19075 -4.0091708,445.77984 c -0.291929,-0.41091 -7.1705242,-6.3892 -7.4146102,-6.83022 -0.244086,-0.44101 -1.65725,-9.44424 -1.850423,-9.90981 -0.193174,-0.46557 -5.569012,-7.8246 -5.708844,-8.30888 -0.139831,-0.48427 0.485842,-9.57622 0.401111,-10.0731 -0.08473,-0.49688 -3.688246,-8.86765 -3.716811,-9.3709 -0.02857,-0.50324 2.604571,-9.22802 2.632531,-9.7313 0.02796,-0.50327 -1.622536,-9.46603 -1.538403,-9.96301 0.08413,-0.49698 4.592697,-8.41708 4.731946,-8.90152 0.139249,-0.48444 0.524534,-9.58975 0.717148,-10.05555 0.192613,-0.4658 6.3505248,-7.18408 6.5940802,-7.62538 0.2435553,-0.44131 2.645303,-9.2326 2.9367376,-9.64386 0.2914346,-0.41126 7.7899117,-5.59083 8.1255606,-5.96688 0.3356489,-0.37604 4.6334249,-8.41247 5.0090671,-8.74858 0.3756423,-0.3361 8.8386795,-3.71724 9.2495915,-4.00916 0.410911,-0.29193 6.389207,-7.17053 6.830221,-7.41462 0.441013,-0.24408 9.444239,-1.65724 9.909808,-1.85042 0.46557,-0.19317 7.824609,-5.56901 8.30888,-5.70884 0.48427,-0.13983 9.576225,0.48584 10.073107,0.40111 0.496881,-0.0847 8.867651,-3.68825 9.370895,-3.71681 0.503244,-0.0286 9.228019,2.60457 9.731298,2.63253 0.503278,0.028 9.466032,-1.62254 9.963015,-1.5384 0.496984,0.0841 8.417082,4.59269 8.901521,4.73194 0.484438,0.13925 9.589747,0.52454 10.055549,0.71715 0.465801,0.19261 7.184075,6.35052 7.625385,6.59408 0.44131,0.24356 9.23259,2.6453 9.64385,2.93674 0.41127,0.29143 5.59084,7.78991 5.96688,8.12556 0.37605,0.33565 8.41248,4.63342 8.74858,5.00907 0.3361,0.37564 3.71724,8.83868 4.00917,9.24959 0.29193,0.41091 7.17052,6.3892 7.41461,6.83022 0.24409,0.44101 1.65725,9.44424 1.85042,9.90981 0.19318,0.46557 5.56901,7.8246 5.70885,8.30888 0.13983,0.48427 -0.48585,9.57622 -0.40112,10.0731 0.0847,0.49688 3.68825,8.86765 3.71682,9.3709 0.0286,0.50324 -2.60458,9.22802 -2.63253,9.7313 -0.028,0.50327 1.62253,9.46603 1.5384,9.96301 -0.0841,0.49698 -4.5927,8.41708 -4.73195,8.90152 -0.13925,0.48444 -0.52453,9.58975 -0.71715,10.05555 -0.19261,0.4658 -6.35052,7.18408 -6.59408,7.62538 -0.24355,0.44131 -2.6453,9.2326 -2.93673,9.64386 -0.29144,0.41126 -7.78992,5.59083 -8.12556,5.96688 -0.33565,0.37604 -4.63343,8.41247 -5.00907,8.74858 z"
         inkscape:flatsided="false"
         inkscape:rounded="0.05"
         sodipodi:cx="65.644249"
         sodipodi:cy="396.2951"
         inkscape:randomized="0"
         transform="matrix(2.6592,0,0,2.555,984.33224,-136.9467)"
         sodipodi:arg2="0.95309641"
         sodipodi:arg1="0.84089667"
         sodipodi:r2="85.442017"
         sodipodi:r1="88.084557"
         sodipodi:sides="28"
         sodipodi:type="star"
         style="opacity:0.99589999;fill:#ffffff;fill-opacity:1"
         id="path3164" />
    </g>
  </g>
</svg>
